<mxfile host="app.diagrams.net" agent="Mozilla/5.0 (Windows NT 10.0; Win64; x64) AppleWebKit/537.36 (KHTML, like Gecko) Chrome/129.0.0.0 Safari/537.36" version="24.7.14">
  <diagram name="Page-1" id="zdLS6XzUSG3x8lp1yBCd">
    <mxGraphModel dx="1434" dy="841" grid="1" gridSize="10" guides="1" tooltips="1" connect="1" arrows="1" fold="1" page="1" pageScale="1" pageWidth="827" pageHeight="1169" background="none" math="0" shadow="0">
      <root>
        <mxCell id="0" />
        <mxCell id="1" parent="0" />
        <mxCell id="VpHzmzro31c7H7pZUwm9-26" value="" style="ellipse;whiteSpace=wrap;html=1;fillColor=none;dashed=1;rotation=70;" parent="1" vertex="1">
          <mxGeometry x="185.34000000000003" y="190.74" width="148.84" height="300.52" as="geometry" />
        </mxCell>
        <mxCell id="VpHzmzro31c7H7pZUwm9-11" value="" style="ellipse;whiteSpace=wrap;html=1;fillColor=none;dashed=1;rotation=90;" parent="1" vertex="1">
          <mxGeometry x="382.91" y="50" width="154.17" height="233.66" as="geometry" />
        </mxCell>
        <mxCell id="_PjYLiZ7u1xAUvMMXe8_-25" value="" style="ellipse;whiteSpace=wrap;html=1;fillColor=none;dashed=1;rotation=90;" parent="1" vertex="1">
          <mxGeometry x="414" y="125.90999999999994" width="240" height="349.67" as="geometry" />
        </mxCell>
        <mxCell id="ZnwNd1amS8vzW6LrnCgQ-1" value="&lt;i style=&quot;font-size: 18px;&quot;&gt;B&lt;/i&gt;&lt;sub style=&quot;&quot;&gt;&lt;font style=&quot;font-size: 12.5px;&quot;&gt;1&lt;/font&gt;&lt;/sub&gt;" style="text;html=1;align=center;verticalAlign=middle;resizable=0;points=[];autosize=1;strokeColor=none;fillColor=none;strokeWidth=1;fontFamily=Times New Roman;fontStyle=0" parent="1" vertex="1">
          <mxGeometry x="650" y="386.74" width="40" height="40" as="geometry" />
        </mxCell>
        <mxCell id="ZnwNd1amS8vzW6LrnCgQ-4" value="&lt;span style=&quot;&quot;&gt;&lt;span style=&quot;font-style: italic; font-size: 18px;&quot;&gt;B&lt;/span&gt;&lt;span style=&quot;font-size: 15px;&quot;&gt;&lt;sub style=&quot;&quot;&gt;0&lt;/sub&gt;&lt;/span&gt;&lt;/span&gt;" style="text;html=1;align=center;verticalAlign=middle;resizable=0;points=[];autosize=1;strokeColor=none;fillColor=none;strokeWidth=1;fontFamily=Times New Roman;fontStyle=0" parent="1" vertex="1">
          <mxGeometry x="305.34" y="135.74" width="40" height="40" as="geometry" />
        </mxCell>
        <mxCell id="ZnwNd1amS8vzW6LrnCgQ-6" value="&lt;span style=&quot;&quot;&gt;&lt;span style=&quot;font-style: italic; font-size: 18px;&quot;&gt;B&lt;/span&gt;&lt;span style=&quot;font-size: 15px;&quot;&gt;&lt;sub style=&quot;&quot;&gt;2&lt;/sub&gt;&lt;/span&gt;&lt;/span&gt;" style="text;html=1;align=center;verticalAlign=middle;resizable=0;points=[];autosize=1;strokeColor=none;fillColor=none;strokeWidth=1;fontFamily=Times New Roman;fontStyle=0" parent="1" vertex="1">
          <mxGeometry x="160" y="255.74" width="40" height="40" as="geometry" />
        </mxCell>
        <mxCell id="ZnwNd1amS8vzW6LrnCgQ-14" value="&lt;var class=&quot;vector&quot;&gt;&lt;span&gt;&lt;font style=&quot;font-size: 18px;&quot;&gt;⃗&lt;/font&gt;&lt;/span&gt;&lt;/var&gt;" style="text;html=1;align=center;verticalAlign=middle;resizable=0;points=[];autosize=1;strokeColor=none;fillColor=none;fontFamily=Times New Roman;" parent="1" vertex="1">
          <mxGeometry x="660" y="380.74" width="20" height="40" as="geometry" />
        </mxCell>
        <mxCell id="ZnwNd1amS8vzW6LrnCgQ-15" value="&lt;var class=&quot;vector&quot;&gt;&lt;span&gt;&lt;font style=&quot;font-size: 18px;&quot;&gt;⃗&lt;/font&gt;&lt;/span&gt;&lt;/var&gt;" style="text;html=1;align=center;verticalAlign=middle;resizable=0;points=[];autosize=1;strokeColor=none;fillColor=none;fontFamily=Times New Roman;" parent="1" vertex="1">
          <mxGeometry x="315.34" y="130.74" width="20" height="40" as="geometry" />
        </mxCell>
        <mxCell id="ZnwNd1amS8vzW6LrnCgQ-18" value="&lt;var class=&quot;vector&quot;&gt;&lt;span&gt;&lt;font style=&quot;font-size: 18px;&quot;&gt;⃗&lt;/font&gt;&lt;/span&gt;&lt;/var&gt;" style="text;html=1;align=center;verticalAlign=middle;resizable=0;points=[];autosize=1;strokeColor=none;fillColor=none;fontFamily=Times New Roman;" parent="1" vertex="1">
          <mxGeometry x="170" y="250.74" width="20" height="40" as="geometry" />
        </mxCell>
        <mxCell id="I01gEKsPp_aFatJLtKyl-1" value="&lt;font face=&quot;Helvetica&quot; style=&quot;font-size: 24px;&quot;&gt;0&lt;/font&gt;" style="ellipse;whiteSpace=wrap;html=1;aspect=fixed;strokeWidth=2;" parent="1" vertex="1">
          <mxGeometry x="200.33999999999997" y="280.74" width="40" height="40" as="geometry" />
        </mxCell>
        <mxCell id="I01gEKsPp_aFatJLtKyl-2" value="&lt;font face=&quot;Helvetica&quot; style=&quot;font-size: 24px;&quot;&gt;1&lt;/font&gt;" style="ellipse;whiteSpace=wrap;html=1;aspect=fixed;strokeWidth=2;" parent="1" vertex="1">
          <mxGeometry x="360" y="280.74" width="40" height="40" as="geometry" />
        </mxCell>
        <mxCell id="I01gEKsPp_aFatJLtKyl-3" value="&lt;font face=&quot;Helvetica&quot; style=&quot;font-size: 24px;&quot;&gt;2&lt;/font&gt;" style="ellipse;whiteSpace=wrap;html=1;aspect=fixed;strokeWidth=2;" parent="1" vertex="1">
          <mxGeometry x="280" y="360.74" width="40" height="40" as="geometry" />
        </mxCell>
        <mxCell id="I01gEKsPp_aFatJLtKyl-4" value="&lt;font face=&quot;Helvetica&quot; style=&quot;font-size: 24px;&quot;&gt;3&lt;/font&gt;" style="ellipse;whiteSpace=wrap;html=1;aspect=fixed;strokeWidth=2;" parent="1" vertex="1">
          <mxGeometry x="120" y="360.74" width="40" height="40" as="geometry" />
        </mxCell>
        <mxCell id="I01gEKsPp_aFatJLtKyl-5" value="&lt;font face=&quot;Helvetica&quot; style=&quot;font-size: 24px;&quot;&gt;4&lt;/font&gt;" style="ellipse;whiteSpace=wrap;html=1;aspect=fixed;strokeWidth=2;" parent="1" vertex="1">
          <mxGeometry x="440" y="200.74" width="40" height="40" as="geometry" />
        </mxCell>
        <mxCell id="I01gEKsPp_aFatJLtKyl-6" value="&lt;font face=&quot;Helvetica&quot; style=&quot;font-size: 24px;&quot;&gt;7&lt;/font&gt;" style="ellipse;whiteSpace=wrap;html=1;aspect=fixed;strokeWidth=2;" parent="1" vertex="1">
          <mxGeometry x="440" y="360.74" width="40" height="40" as="geometry" />
        </mxCell>
        <mxCell id="I01gEKsPp_aFatJLtKyl-7" value="&lt;font face=&quot;Helvetica&quot; style=&quot;font-size: 24px;&quot;&gt;9&lt;/font&gt;" style="ellipse;whiteSpace=wrap;html=1;aspect=fixed;strokeWidth=2;" parent="1" vertex="1">
          <mxGeometry x="360" y="120.74" width="40" height="40" as="geometry" />
        </mxCell>
        <mxCell id="I01gEKsPp_aFatJLtKyl-8" value="&lt;font face=&quot;Helvetica&quot; style=&quot;font-size: 24px;&quot;&gt;8&lt;/font&gt;" style="ellipse;whiteSpace=wrap;html=1;aspect=fixed;strokeWidth=2;" parent="1" vertex="1">
          <mxGeometry x="520" y="120.74" width="40" height="40" as="geometry" />
        </mxCell>
        <mxCell id="I01gEKsPp_aFatJLtKyl-9" value="&lt;font face=&quot;Helvetica&quot; style=&quot;font-size: 24px;&quot;&gt;5&lt;/font&gt;" style="ellipse;whiteSpace=wrap;html=1;aspect=fixed;strokeWidth=2;" parent="1" vertex="1">
          <mxGeometry x="600.27" y="200.74" width="40" height="40" as="geometry" />
        </mxCell>
        <mxCell id="I01gEKsPp_aFatJLtKyl-10" value="&lt;font face=&quot;Helvetica&quot; style=&quot;font-size: 24px;&quot;&gt;6&lt;/font&gt;" style="ellipse;whiteSpace=wrap;html=1;aspect=fixed;strokeWidth=2;" parent="1" vertex="1">
          <mxGeometry x="600.27" y="360.74" width="40" height="40" as="geometry" />
        </mxCell>
        <mxCell id="I01gEKsPp_aFatJLtKyl-11" value="" style="endArrow=classic;html=1;rounded=0;exitX=1;exitY=0.5;exitDx=0;exitDy=0;strokeWidth=2;entryX=0;entryY=0.5;entryDx=0;entryDy=0;strokeColor=#33FF33;" parent="1" source="I01gEKsPp_aFatJLtKyl-1" target="I01gEKsPp_aFatJLtKyl-2" edge="1">
          <mxGeometry width="50" height="50" relative="1" as="geometry">
            <mxPoint x="515" y="570.74" as="sourcePoint" />
            <mxPoint x="635" y="571.74" as="targetPoint" />
          </mxGeometry>
        </mxCell>
        <mxCell id="I01gEKsPp_aFatJLtKyl-12" value="" style="endArrow=classic;html=1;rounded=0;exitX=1;exitY=1;exitDx=0;exitDy=0;strokeWidth=2;entryX=0;entryY=0;entryDx=0;entryDy=0;" parent="1" source="I01gEKsPp_aFatJLtKyl-1" target="I01gEKsPp_aFatJLtKyl-3" edge="1">
          <mxGeometry width="50" height="50" relative="1" as="geometry">
            <mxPoint x="250" y="310.74" as="sourcePoint" />
            <mxPoint x="370" y="310.74" as="targetPoint" />
          </mxGeometry>
        </mxCell>
        <mxCell id="I01gEKsPp_aFatJLtKyl-13" value="" style="endArrow=classic;html=1;rounded=0;exitX=0;exitY=1;exitDx=0;exitDy=0;strokeWidth=2;entryX=1;entryY=0;entryDx=0;entryDy=0;" parent="1" source="I01gEKsPp_aFatJLtKyl-1" target="I01gEKsPp_aFatJLtKyl-4" edge="1">
          <mxGeometry width="50" height="50" relative="1" as="geometry">
            <mxPoint x="244" y="324.74" as="sourcePoint" />
            <mxPoint x="296" y="376.74" as="targetPoint" />
          </mxGeometry>
        </mxCell>
        <mxCell id="I01gEKsPp_aFatJLtKyl-14" value="" style="endArrow=classic;html=1;rounded=0;exitX=0;exitY=0.5;exitDx=0;exitDy=0;strokeWidth=2;entryX=1;entryY=0.5;entryDx=0;entryDy=0;strokeColor=#33FF33;" parent="1" source="I01gEKsPp_aFatJLtKyl-3" target="I01gEKsPp_aFatJLtKyl-4" edge="1">
          <mxGeometry width="50" height="50" relative="1" as="geometry">
            <mxPoint x="216" y="324.74" as="sourcePoint" />
            <mxPoint x="164" y="376.74" as="targetPoint" />
          </mxGeometry>
        </mxCell>
        <mxCell id="I01gEKsPp_aFatJLtKyl-15" value="" style="endArrow=classic;html=1;rounded=0;exitX=0;exitY=1;exitDx=0;exitDy=0;strokeWidth=2;entryX=1;entryY=0;entryDx=0;entryDy=0;strokeColor=#33FF33;" parent="1" source="I01gEKsPp_aFatJLtKyl-2" target="I01gEKsPp_aFatJLtKyl-3" edge="1">
          <mxGeometry width="50" height="50" relative="1" as="geometry">
            <mxPoint x="290" y="390.74" as="sourcePoint" />
            <mxPoint x="170" y="390.74" as="targetPoint" />
          </mxGeometry>
        </mxCell>
        <mxCell id="I01gEKsPp_aFatJLtKyl-16" value="" style="endArrow=classic;html=1;rounded=0;exitX=1;exitY=1;exitDx=0;exitDy=0;strokeWidth=2;entryX=0;entryY=0;entryDx=0;entryDy=0;" parent="1" source="I01gEKsPp_aFatJLtKyl-2" target="I01gEKsPp_aFatJLtKyl-6" edge="1">
          <mxGeometry width="50" height="50" relative="1" as="geometry">
            <mxPoint x="376" y="324.74" as="sourcePoint" />
            <mxPoint x="324" y="376.74" as="targetPoint" />
          </mxGeometry>
        </mxCell>
        <mxCell id="I01gEKsPp_aFatJLtKyl-17" value="" style="endArrow=classic;html=1;rounded=0;exitX=1;exitY=0;exitDx=0;exitDy=0;strokeWidth=2;entryX=0;entryY=1;entryDx=0;entryDy=0;strokeColor=#3399FF;" parent="1" source="I01gEKsPp_aFatJLtKyl-2" target="I01gEKsPp_aFatJLtKyl-5" edge="1">
          <mxGeometry width="50" height="50" relative="1" as="geometry">
            <mxPoint x="404" y="324.74" as="sourcePoint" />
            <mxPoint x="456" y="376.74" as="targetPoint" />
          </mxGeometry>
        </mxCell>
        <mxCell id="I01gEKsPp_aFatJLtKyl-18" value="" style="endArrow=classic;html=1;rounded=0;exitX=1;exitY=0.5;exitDx=0;exitDy=0;strokeWidth=2;entryX=0;entryY=0.5;entryDx=0;entryDy=0;strokeColor=#3399FF;" parent="1" source="I01gEKsPp_aFatJLtKyl-5" target="I01gEKsPp_aFatJLtKyl-9" edge="1">
          <mxGeometry width="50" height="50" relative="1" as="geometry">
            <mxPoint x="404" y="296.74" as="sourcePoint" />
            <mxPoint x="456" y="244.74" as="targetPoint" />
          </mxGeometry>
        </mxCell>
        <mxCell id="I01gEKsPp_aFatJLtKyl-19" value="" style="endArrow=classic;html=1;rounded=0;exitX=0.5;exitY=1;exitDx=0;exitDy=0;strokeWidth=2;entryX=0.5;entryY=0;entryDx=0;entryDy=0;strokeColor=#3399FF;" parent="1" source="I01gEKsPp_aFatJLtKyl-9" target="I01gEKsPp_aFatJLtKyl-10" edge="1">
          <mxGeometry width="50" height="50" relative="1" as="geometry">
            <mxPoint x="490" y="230.74" as="sourcePoint" />
            <mxPoint x="610" y="230.74" as="targetPoint" />
          </mxGeometry>
        </mxCell>
        <mxCell id="I01gEKsPp_aFatJLtKyl-20" value="" style="endArrow=classic;html=1;rounded=0;exitX=0;exitY=1;exitDx=0;exitDy=0;strokeWidth=2;entryX=1;entryY=0;entryDx=0;entryDy=0;" parent="1" source="I01gEKsPp_aFatJLtKyl-9" target="I01gEKsPp_aFatJLtKyl-6" edge="1">
          <mxGeometry width="50" height="50" relative="1" as="geometry">
            <mxPoint x="630" y="250.74" as="sourcePoint" />
            <mxPoint x="630" y="370.74" as="targetPoint" />
          </mxGeometry>
        </mxCell>
        <mxCell id="I01gEKsPp_aFatJLtKyl-21" value="" style="endArrow=classic;html=1;rounded=0;exitX=0;exitY=0.5;exitDx=0;exitDy=0;strokeWidth=2;entryX=1;entryY=0.5;entryDx=0;entryDy=0;strokeColor=#3399FF;" parent="1" source="I01gEKsPp_aFatJLtKyl-10" target="I01gEKsPp_aFatJLtKyl-6" edge="1">
          <mxGeometry width="50" height="50" relative="1" as="geometry">
            <mxPoint x="616" y="244.74" as="sourcePoint" />
            <mxPoint x="484" y="376.74" as="targetPoint" />
          </mxGeometry>
        </mxCell>
        <mxCell id="I01gEKsPp_aFatJLtKyl-22" value="" style="endArrow=classic;html=1;rounded=0;exitX=0;exitY=0.5;exitDx=0;exitDy=0;strokeWidth=2;entryX=1;entryY=0.5;entryDx=0;entryDy=0;strokeColor=#FF3333;" parent="1" source="I01gEKsPp_aFatJLtKyl-8" target="I01gEKsPp_aFatJLtKyl-7" edge="1">
          <mxGeometry width="50" height="50" relative="1" as="geometry">
            <mxPoint x="610" y="390.74" as="sourcePoint" />
            <mxPoint x="490" y="390.74" as="targetPoint" />
          </mxGeometry>
        </mxCell>
        <mxCell id="I01gEKsPp_aFatJLtKyl-23" value="" style="endArrow=classic;html=1;rounded=0;exitX=0;exitY=1;exitDx=0;exitDy=0;strokeWidth=2;entryX=1;entryY=0;entryDx=0;entryDy=0;" parent="1" source="I01gEKsPp_aFatJLtKyl-8" target="I01gEKsPp_aFatJLtKyl-5" edge="1">
          <mxGeometry width="50" height="50" relative="1" as="geometry">
            <mxPoint x="530" y="150.74" as="sourcePoint" />
            <mxPoint x="410" y="150.74" as="targetPoint" />
          </mxGeometry>
        </mxCell>
        <mxCell id="I01gEKsPp_aFatJLtKyl-24" value="" style="endArrow=classic;html=1;rounded=0;exitX=1;exitY=1;exitDx=0;exitDy=0;strokeWidth=2;entryX=0;entryY=0;entryDx=0;entryDy=0;strokeColor=#FF3333;" parent="1" source="I01gEKsPp_aFatJLtKyl-7" target="I01gEKsPp_aFatJLtKyl-5" edge="1">
          <mxGeometry width="50" height="50" relative="1" as="geometry">
            <mxPoint x="536" y="164.74" as="sourcePoint" />
            <mxPoint x="484" y="216.74" as="targetPoint" />
          </mxGeometry>
        </mxCell>
      </root>
    </mxGraphModel>
  </diagram>
</mxfile>
